<svg xmlns="http://www.w3.org/2000/svg" viewBox="0 0 128 128">
  <defs>
    <linearGradient id="g" x1="14" y1="15" x2="111" y2="113" gradientUnits="userSpaceOnUse">
      <stop stop-color="#47ff8a"/>
      <stop offset=".55" stop-color="#f4c658"/>
      <stop offset="1" stop-color="#fff4c7"/>
    </linearGradient>
  </defs>
  <rect width="128" height="128" rx="30" fill="#061009"/>
  <circle cx="64" cy="64" r="48" fill="url(#g)"/>
  <path d="M36 53 24 34l25 8h30l25-8-12 19c7 7 11 16 11 27 0 23-17 35-39 35S25 103 25 80c0-11 4-20 11-27Z" fill="#0b160f"/>
  <circle cx="50" cy="70" r="7" fill="#47ff8a"/>
  <circle cx="78" cy="70" r="7" fill="#47ff8a"/>
  <path d="M59 82h10l-5 6-5-6Z" fill="#f4c658"/>
  <path d="M49 94c9 7 21 7 30 0" fill="none" stroke="#f4c658" stroke-width="5" stroke-linecap="round"/>
  <path d="M37 40h54l-7 12H44l-7-12Z" fill="#fff4c7"/>
  <text x="64" y="37" text-anchor="middle" font-family="Arial Black, Arial, sans-serif" font-size="16" fill="#061009">INU</text>
</svg>
